<?xml version="1.0" encoding="UTF-8"?><svg id="Artwork" xmlns="http://www.w3.org/2000/svg" viewBox="0 0 2347.32 721.5"><defs><style>.cls-1{fill:#fff;}</style></defs><path class="cls-1" d="M379.14,286.84l101.36,138.54h90.35l-149.81-204.77,135.91-157.04h-90.35c-29.15,33.26-58.3,66.52-87.46,99.78"/><rect class="cls-1" x="65.93" y="64.42" width="78.09" height="360.96"/><path class="cls-1" d="M187.92,64.24v69.42c20.52,0,37.15,14.76,37.15,32.97s-16.63,32.97-37.15,32.97v69.42c62.06,0,112.37-45.84,112.37-102.39s-50.31-102.39-112.37-102.39Z"/><path class="cls-1" d="M139.15,519.67c5.92,3.43,10.54,8.22,13.84,14.34,3.3,6.13,4.95,13.03,4.95,20.7s-1.65,14.68-4.95,21.01c-3.3,6.33-7.91,11.31-13.84,14.95-5.93,3.64-12.59,5.45-20,5.45h-41.81v53.73c0,1.75-.57,3.2-1.72,4.34-1.15,1.15-2.59,1.72-4.34,1.72s-3.2-.57-4.34-1.72c-1.15-1.14-1.72-2.59-1.72-4.34v-129.28c0-1.75.57-3.2,1.72-4.34s2.59-1.72,4.34-1.72h47.87c7.4,0,14.07,1.72,20,5.15ZM138.14,575.92c4.85-5.65,7.27-12.72,7.27-21.21s-2.43-15.15-7.27-20.4c-4.85-5.25-11.18-7.88-18.99-7.88h-41.81v57.97h41.81c7.81,0,14.14-2.83,18.99-8.48Z"/><path class="cls-1" d="M266,602.48c-1.21,1.15-2.62,1.72-4.24,1.72h-76.35c0,8.08,1.65,15.32,4.95,21.71,3.3,6.4,8.01,11.45,14.14,15.15,6.13,3.71,13.36,5.55,21.71,5.55,6.46,0,12.25-1.34,17.37-4.04,5.12-2.69,9.22-6.13,12.32-10.3,1.48-1.21,2.9-1.82,4.24-1.82s2.56.54,3.64,1.62c1.08,1.08,1.62,2.29,1.62,3.64,0,1.48-.68,2.9-2.02,4.24-4.31,5.25-9.73,9.56-16.26,12.93-6.53,3.36-13.43,5.05-20.7,5.05-10.37,0-19.53-2.22-27.47-6.67-7.95-4.44-14.14-10.67-18.58-18.68-4.44-8.01-6.66-17.27-6.66-27.77,0-11.04,2.19-20.7,6.56-28.99,4.37-8.28,10.2-14.61,17.47-18.99,7.27-4.37,15.01-6.56,23.23-6.56s15.65,1.89,22.72,5.66c7.07,3.77,12.83,9.29,17.27,16.56,4.44,7.27,6.73,15.89,6.87,25.86,0,1.62-.61,3-1.82,4.14ZM199.24,570.06c-6.67,5.39-10.94,13.13-12.83,23.23h68.88v-1.62c-.68-6.06-2.7-11.34-6.06-15.86-3.37-4.51-7.57-7.94-12.62-10.3-5.05-2.35-10.27-3.53-15.65-3.53-7.81,0-15.05,2.7-21.71,8.08Z"/><path class="cls-1" d="M348.42,551.88c2.15,1.08,3.23,2.7,3.23,4.85,0,1.89-.54,3.4-1.62,4.54-1.08,1.15-2.36,1.72-3.84,1.72-.68,0-1.99-.33-3.94-1.01-1.95-.67-3.81-1.01-5.55-1.01-4.98,0-9.93,1.92-14.85,5.76-4.92,3.84-8.96,8.79-12.12,14.85-3.17,6.06-4.75,12.19-4.75,18.38v49.89c0,1.75-.58,3.2-1.72,4.34s-2.59,1.72-4.34,1.72-3.2-.57-4.34-1.72c-1.15-1.14-1.72-2.59-1.72-4.34v-90.49c0-1.75.57-3.2,1.72-4.34s2.59-1.72,4.34-1.72,3.2.57,4.34,1.72c1.14,1.15,1.72,2.59,1.72,4.34v17.78c3.1-7.68,7.78-14.04,14.04-19.09,6.26-5.05,13.63-7.64,22.12-7.78,2.69,0,5.12.54,7.27,1.62Z"/><path class="cls-1" d="M396.59,522.19c-2.36,2.83-3.53,6.73-3.53,11.72v20.8h22.62c1.48,0,2.79.54,3.94,1.62,1.14,1.08,1.72,2.42,1.72,4.04s-.57,2.96-1.72,4.04c-1.15,1.08-2.46,1.62-3.94,1.62h-22.62v83.83c0,1.75-.57,3.2-1.72,4.34-1.15,1.15-2.59,1.72-4.34,1.72s-3.2-.57-4.34-1.72c-1.15-1.14-1.72-2.59-1.72-4.34v-83.83h-14.75c-1.62,0-2.96-.57-4.04-1.72-1.08-1.14-1.62-2.46-1.62-3.94,0-1.75.54-3.13,1.62-4.14,1.08-1.01,2.42-1.51,4.04-1.51h14.75v-20.8c0-8.48,2.46-15.05,7.37-19.69,4.91-4.65,11.48-6.97,19.69-6.97,3.77,0,7.27.57,10.5,1.72,3.23,1.15,4.85,3,4.85,5.55,0,1.62-.54,2.96-1.62,4.04-1.08,1.08-2.29,1.62-3.64,1.62-1.21,0-2.69-.34-4.44-1.01-2.96-.81-5.32-1.21-7.07-1.21-4.31,0-7.64,1.41-10,4.24Z"/><path class="cls-1" d="M527.38,602.48c-1.21,1.15-2.63,1.72-4.24,1.72h-76.35c0,8.08,1.65,15.32,4.95,21.71,3.3,6.4,8.01,11.45,14.14,15.15,6.13,3.71,13.36,5.55,21.71,5.55,6.46,0,12.25-1.34,17.37-4.04,5.12-2.69,9.22-6.13,12.32-10.3,1.48-1.21,2.89-1.82,4.24-1.82s2.56.54,3.63,1.62c1.08,1.08,1.62,2.29,1.62,3.64,0,1.48-.67,2.9-2.02,4.24-4.31,5.25-9.73,9.56-16.26,12.93-6.53,3.36-13.43,5.05-20.7,5.05-10.37,0-19.53-2.22-27.47-6.67-7.95-4.44-14.14-10.67-18.58-18.68-4.44-8.01-6.67-17.27-6.67-27.77,0-11.04,2.19-20.7,6.56-28.99,4.38-8.28,10.2-14.61,17.47-18.99,7.27-4.37,15.01-6.56,23.23-6.56s15.65,1.89,22.72,5.66c7.07,3.77,12.83,9.29,17.27,16.56,4.44,7.27,6.73,15.89,6.87,25.86,0,1.62-.6,3-1.82,4.14ZM460.62,570.06c-6.67,5.39-10.94,13.13-12.83,23.23h68.88v-1.62c-.67-6.06-2.69-11.34-6.06-15.86-3.37-4.51-7.57-7.94-12.62-10.3-5.05-2.35-10.27-3.53-15.65-3.53-7.81,0-15.05,2.7-21.71,8.08Z"/><path class="cls-1" d="M616.56,552.39c5.45,1.41,9.83,3.33,13.13,5.76,3.3,2.42,4.95,5.05,4.95,7.88,0,1.48-.5,2.83-1.51,4.04s-2.26,1.82-3.74,1.82c-1.35,0-2.46-.27-3.33-.81-.88-.54-1.85-1.34-2.93-2.42-1.75-1.75-3.43-3.03-5.05-3.84-2.02-.94-4.68-1.72-7.98-2.32-3.3-.61-6.84-.91-10.6-.91-7.41,0-14.18,1.89-20.3,5.66-6.13,3.77-10.94,8.89-14.44,15.35-3.5,6.46-5.25,13.6-5.25,21.41s1.68,15.35,5.05,21.82c3.36,6.46,8.05,11.55,14.04,15.25,5.99,3.71,12.83,5.55,20.5,5.55,4.85,0,8.72-.4,11.61-1.21,2.89-.81,5.76-1.95,8.58-3.43.94-.54,2.56-1.75,4.85-3.64,1.08-.94,2.02-1.65,2.83-2.12.81-.47,1.68-.71,2.63-.71,1.62,0,2.89.5,3.84,1.51.94,1.01,1.41,2.32,1.41,3.94,0,2.29-1.62,4.75-4.85,7.37-3.23,2.63-7.67,4.88-13.33,6.77-5.66,1.88-11.92,2.83-18.79,2.83-9.83,0-18.58-2.32-26.26-6.97s-13.63-11.08-17.88-19.29c-4.24-8.21-6.36-17.44-6.36-27.67s2.15-18.82,6.46-26.97c4.31-8.15,10.37-14.64,18.18-19.49,7.81-4.85,16.77-7.27,26.87-7.27,6.33,0,12.22.71,17.67,2.12Z"/><path class="cls-1" d="M678.27,564.41v67.67c0,5.12.94,8.58,2.83,10.4,1.88,1.82,4.37,2.73,7.47,2.73.81,0,1.82-.17,3.03-.5,1.21-.33,2.15-.5,2.83-.5,1.21,0,2.25.5,3.13,1.51.87,1.01,1.31,2.19,1.31,3.53,0,1.89-1.08,3.47-3.23,4.75-2.16,1.28-4.71,1.92-7.68,1.92-3.63,0-6.87-.33-9.69-1.01-2.83-.67-5.55-2.69-8.18-6.06-2.62-3.36-3.94-8.75-3.94-16.16v-68.27h-14.75c-1.61,0-3-.54-4.14-1.62-1.15-1.08-1.72-2.42-1.72-4.04s.57-2.96,1.72-4.04c1.14-1.08,2.52-1.61,4.14-1.61h14.75v-22.42c0-1.75.57-3.2,1.72-4.34s2.59-1.72,4.34-1.72,3.2.57,4.34,1.72c1.14,1.15,1.72,2.59,1.72,4.34v22.42h20.2c1.48,0,2.79.6,3.94,1.82s1.72,2.56,1.72,4.04c0,1.62-.54,2.93-1.61,3.94-1.08,1.01-2.43,1.51-4.04,1.51h-20.2Z"/><path class="cls-1" d="M892.59,650.26c0,2.02-.71,3.6-2.12,4.75s-3,1.72-4.75,1.72-3.23-.74-4.44-2.22l-56.36-70.9-27.47,25.86v40.2c-.14,1.89-.81,3.4-2.02,4.54-1.21,1.15-2.69,1.72-4.44,1.72-1.89,0-3.4-.57-4.54-1.72-1.15-1.14-1.72-2.66-1.72-4.54v-128.87c0-1.88.61-3.4,1.82-4.54,1.21-1.14,2.76-1.72,4.65-1.72s3.4.57,4.54,1.72c1.14,1.15,1.72,2.66,1.72,4.54v73.32l81.61-77.16c1.21-1.34,2.69-2.02,4.44-2.02,1.62,0,2.99.61,4.14,1.82,1.14,1.21,1.72,2.56,1.72,4.04,0,1.61-.61,3.03-1.82,4.24l-52.92,49.49,56.56,71.51c.94,1.35,1.41,2.76,1.41,4.24Z"/><path class="cls-1" d="M917.43,535.42c-1.48-1.28-2.22-3.13-2.22-5.55v-2.02c0-2.43.77-4.27,2.32-5.55,1.55-1.28,3.67-1.92,6.36-1.92,5.38,0,8.08,2.49,8.08,7.47v2.02c0,2.42-.71,4.28-2.12,5.55-1.41,1.28-3.47,1.92-6.16,1.92s-4.78-.64-6.26-1.92ZM928.03,654.19c-1.15,1.15-2.59,1.72-4.34,1.72s-3.2-.57-4.34-1.72c-1.15-1.14-1.72-2.59-1.72-4.34v-92.92c0-1.75.57-3.2,1.72-4.34s2.59-1.72,4.34-1.72,3.2.57,4.34,1.72c1.14,1.15,1.72,2.59,1.72,4.34v92.92c0,1.75-.57,3.2-1.72,4.34Z"/><path class="cls-1" d="M981.46,564.41v67.67c0,5.12.94,8.58,2.83,10.4,1.88,1.82,4.37,2.73,7.47,2.73.81,0,1.82-.17,3.03-.5,1.21-.33,2.15-.5,2.83-.5,1.21,0,2.25.5,3.13,1.51.87,1.01,1.31,2.19,1.31,3.53,0,1.89-1.08,3.47-3.23,4.75-2.16,1.28-4.71,1.92-7.68,1.92-3.63,0-6.87-.33-9.69-1.01-2.83-.67-5.55-2.69-8.18-6.06-2.62-3.36-3.94-8.75-3.94-16.16v-68.27h-14.75c-1.61,0-3-.54-4.14-1.62-1.15-1.08-1.72-2.42-1.72-4.04s.57-2.96,1.72-4.04c1.14-1.08,2.52-1.61,4.14-1.61h14.75v-22.42c0-1.75.57-3.2,1.72-4.34s2.59-1.72,4.34-1.72,3.2.57,4.34,1.72c1.14,1.15,1.72,2.59,1.72,4.34v22.42h20.2c1.48,0,2.79.6,3.94,1.82s1.72,2.56,1.72,4.04c0,1.62-.54,2.93-1.61,3.94-1.08,1.01-2.43,1.51-4.04,1.51h-20.2Z"/><path class="cls-1" d="M1091.04,552.39c5.45,1.41,9.83,3.33,13.13,5.76,3.3,2.42,4.95,5.05,4.95,7.88,0,1.48-.5,2.83-1.51,4.04s-2.26,1.82-3.74,1.82c-1.35,0-2.46-.27-3.33-.81-.88-.54-1.85-1.34-2.93-2.42-1.75-1.75-3.43-3.03-5.05-3.84-2.02-.94-4.68-1.72-7.98-2.32-3.3-.61-6.84-.91-10.6-.91-7.41,0-14.17,1.89-20.3,5.66-6.13,3.77-10.94,8.89-14.44,15.35-3.5,6.46-5.25,13.6-5.25,21.41s1.68,15.35,5.05,21.82c3.36,6.46,8.04,11.55,14.04,15.25,5.99,3.71,12.83,5.55,20.5,5.55,4.85,0,8.72-.4,11.61-1.21,2.89-.81,5.76-1.95,8.58-3.43.94-.54,2.56-1.75,4.85-3.64,1.08-.94,2.02-1.65,2.83-2.12.81-.47,1.68-.71,2.62-.71,1.62,0,2.9.5,3.84,1.51.94,1.01,1.41,2.32,1.41,3.94,0,2.29-1.61,4.75-4.85,7.37s-7.68,4.88-13.33,6.77c-5.65,1.88-11.92,2.83-18.78,2.83-9.83,0-18.58-2.32-26.26-6.97-7.68-4.65-13.63-11.08-17.88-19.29-4.24-8.21-6.36-17.44-6.36-27.67s2.15-18.82,6.46-26.97c4.31-8.15,10.37-14.64,18.18-19.49,7.81-4.85,16.77-7.27,26.87-7.27,6.33,0,12.22.71,17.67,2.12Z"/><path class="cls-1" d="M1206.68,563.3c5.92,7.61,8.89,17.41,8.89,29.39v57.17c0,1.75-.57,3.2-1.72,4.34-1.15,1.15-2.59,1.72-4.34,1.72s-3.2-.57-4.34-1.72c-1.15-1.14-1.72-2.59-1.72-4.34v-57.17c0-8.75-2.09-15.86-6.26-21.31-4.18-5.45-10.71-8.18-19.59-8.18-5.66,0-11.01,1.35-16.06,4.04-5.05,2.69-9.12,6.3-12.22,10.81-3.1,4.51-4.65,9.39-4.65,14.64v57.17c0,1.75-.57,3.2-1.72,4.34s-2.6,1.72-4.34,1.72-3.2-.57-4.34-1.72c-1.14-1.14-1.72-2.59-1.72-4.34v-137.36c0-1.75.57-3.2,1.72-4.34,1.14-1.14,2.59-1.72,4.34-1.72s3.2.57,4.34,1.72c1.14,1.15,1.72,2.59,1.72,4.34v59.19c3.64-5.79,8.69-10.54,15.15-14.24,6.46-3.7,13.06-5.55,19.8-5.55,12.12,0,21.14,3.81,27.07,11.41Z"/><path class="cls-1" d="M1332.73,602.48c-1.21,1.15-2.63,1.72-4.24,1.72h-76.35c0,8.08,1.65,15.32,4.95,21.71,3.3,6.4,8.01,11.45,14.14,15.15,6.13,3.71,13.36,5.55,21.71,5.55,6.46,0,12.25-1.34,17.37-4.04,5.12-2.69,9.22-6.13,12.32-10.3,1.48-1.21,2.89-1.82,4.24-1.82s2.56.54,3.64,1.62c1.08,1.08,1.61,2.29,1.61,3.64,0,1.48-.67,2.9-2.02,4.24-4.31,5.25-9.73,9.56-16.26,12.93-6.53,3.36-13.43,5.05-20.7,5.05-10.37,0-19.53-2.22-27.47-6.67-7.95-4.44-14.14-10.67-18.58-18.68-4.44-8.01-6.67-17.27-6.67-27.77,0-11.04,2.19-20.7,6.56-28.99,4.37-8.28,10.2-14.61,17.47-18.99,7.27-4.37,15.01-6.56,23.23-6.56s15.65,1.89,22.72,5.66c7.07,3.77,12.83,9.29,17.27,16.56,4.44,7.27,6.73,15.89,6.87,25.86,0,1.62-.61,3-1.82,4.14ZM1265.97,570.06c-6.66,5.39-10.94,13.13-12.83,23.23h68.88v-1.62c-.67-6.06-2.69-11.34-6.06-15.86-3.37-4.51-7.57-7.94-12.62-10.3-5.05-2.35-10.27-3.53-15.65-3.53-7.81,0-15.05,2.7-21.71,8.08Z"/><path class="cls-1" d="M1435.85,561.28c5.86,7.34,8.79,17.07,8.79,29.19v59.39c0,1.75-.61,3.2-1.82,4.34-1.21,1.15-2.63,1.72-4.24,1.72-1.75,0-3.2-.57-4.34-1.72-1.15-1.14-1.72-2.59-1.72-4.34v-58.78c0-8.75-2.19-15.86-6.56-21.31-4.38-5.45-11.14-8.18-20.3-8.18-5.79,0-11.28,1.35-16.46,4.04-5.19,2.69-9.39,6.3-12.62,10.81-3.23,4.51-4.85,9.39-4.85,14.64v58.78c0,1.75-.57,3.2-1.72,4.34-1.15,1.15-2.59,1.72-4.34,1.72s-3.2-.57-4.34-1.72c-1.15-1.14-1.72-2.59-1.72-4.34v-90.49c0-1.75.57-3.2,1.72-4.34s2.59-1.72,4.34-1.72,3.2.57,4.34,1.72c1.14,1.15,1.72,2.59,1.72,4.34v11.11c3.64-5.79,8.85-10.6,15.65-14.44,6.8-3.84,13.77-5.76,20.91-5.76,12.52,0,21.71,3.67,27.57,11.01Z"/><path class="cls-1" d="M1647.64,649.65c0,1.35-.5,2.63-1.51,3.84-1.01,1.21-2.32,1.82-3.94,1.82-1.35,0-2.56-.33-3.64-1.01l-4.44-3.43c-6.2-4.58-11.45-8.69-15.76-12.32-5.79,6.06-12.69,10.81-20.7,14.24-8.01,3.43-17.07,5.15-27.17,5.15-9.29,0-17.67-2.19-25.15-6.56-7.47-4.37-13.3-10.1-17.47-17.17-4.18-7.07-6.26-14.51-6.26-22.32,0-8.89,2.56-17.07,7.68-24.54,5.12-7.47,12.66-13.16,22.62-17.07-5.66-8.89-8.48-17.1-8.48-24.64,0-6.33,1.55-11.98,4.65-16.97,3.1-4.98,7.51-8.92,13.23-11.82,5.72-2.89,12.42-4.34,20.1-4.34,9.16,0,17,1.75,23.53,5.25,6.53,3.5,11.14,7.88,13.84,13.13.67,1.35,1.01,2.62,1.01,3.84,0,1.35-.54,2.52-1.62,3.53-1.08,1.01-2.42,1.51-4.04,1.51-2.16,0-3.64-.74-4.44-2.22-2.96-4.44-6.7-7.88-11.21-10.3-4.51-2.42-10.2-3.64-17.07-3.64-8.08,0-14.31,1.99-18.68,5.96-4.38,3.97-6.56,9.33-6.56,16.06,0,5.66,2.12,11.92,6.36,18.79,4.24,6.87,9.93,14.28,17.07,22.22,9.96,11.18,22.29,23.03,36.97,35.55,4.71-7.94,7.94-16.7,9.7-26.26.27-1.21.84-2.22,1.72-3.03.87-.81,2.12-1.21,3.74-1.21,1.75,0,3.2.71,4.34,2.12,1.14,1.41,1.58,3.06,1.31,4.95-1.62,11.04-5.52,21.28-11.72,30.7,5.66,4.72,12.12,9.77,19.39,15.15,1.75,1.35,2.62,3.03,2.62,5.05ZM1609.46,631.27c-14.28-11.45-27.88-24.57-40.8-39.39-4.85-5.66-8.28-9.83-10.3-12.52-8.35,2.56-14.48,6.6-18.38,12.12-3.91,5.52-5.86,11.78-5.86,18.78,0,6.2,1.45,12.05,4.34,17.57,2.89,5.52,7.2,9.97,12.93,13.33,5.72,3.37,12.56,5.05,20.5,5.05,15.49,0,28.01-4.98,37.57-14.95Z"/><path class="cls-1" d="M1833.07,650.05c0,.67-.27,1.55-.81,2.62-.54.94-1.28,1.69-2.22,2.22-.94.54-1.95.81-3.03.81-1.35,0-2.49-.27-3.43-.81-3.77-2.15-6.8-5.66-9.09-10.5-2.29-4.85-3.43-12.59-3.43-23.23,0-9.43-2.63-16.06-7.88-19.9-5.25-3.84-11.51-5.76-18.79-5.76h-44.84v54.34c0,1.75-.54,3.2-1.62,4.34-1.08,1.15-2.49,1.72-4.24,1.72-1.89,0-3.5-.57-4.85-1.72-1.35-1.14-2.02-2.59-2.02-4.34v-129.28c0-1.75.57-3.2,1.72-4.34s2.59-1.72,4.34-1.72h54.54c7.68,0,14.54,1.65,20.6,4.95,6.06,3.3,10.81,7.85,14.24,13.63,3.43,5.79,5.15,12.32,5.15,19.59,0,8.62-2.26,16.2-6.77,22.72-4.51,6.53-10.4,11.01-17.67,13.43,5.92,2.29,10.77,6.16,14.54,11.61,3.77,5.45,5.72,12.09,5.86,19.9.13,8.35.71,14.21,1.72,17.57,1.01,3.37,2.66,5.72,4.95,7.07,2.02,1.35,3.03,3.03,3.03,5.05ZM1788.02,584.41c4.71-.41,9.09-1.95,13.13-4.65,4.04-2.69,7.27-6.33,9.7-10.91,2.42-4.58,3.64-9.83,3.64-15.75,0-7.68-2.59-14.04-7.78-19.09-5.19-5.05-11.95-7.57-20.3-7.57h-46.86v57.97h48.48Z"/><path class="cls-1" d="M1946.79,631.67c-4.44,8.22-10.57,14.64-18.38,19.29-7.81,4.65-16.5,6.97-26.06,6.97s-18.25-2.32-26.06-6.97c-7.81-4.65-13.94-11.08-18.38-19.29-4.44-8.21-6.67-17.37-6.67-27.47s2.22-19.26,6.67-27.47c4.44-8.21,10.57-14.68,18.38-19.39,7.81-4.71,16.5-7.07,26.06-7.07s18.25,2.36,26.06,7.07c7.81,4.72,13.94,11.18,18.38,19.39,4.44,8.22,6.67,17.37,6.67,27.47s-2.22,19.26-6.67,27.47ZM1936.29,582.39c-3.37-6.46-8.05-11.55-14.04-15.25-5.99-3.7-12.62-5.55-19.9-5.55s-13.87,1.85-19.8,5.55c-5.93,3.7-10.6,8.79-14.04,15.25-3.43,6.46-5.15,13.73-5.15,21.81s1.72,15.15,5.15,21.61c3.43,6.46,8.11,11.55,14.04,15.25,5.92,3.71,12.52,5.55,19.8,5.55s13.9-1.82,19.9-5.45c5.99-3.64,10.67-8.69,14.04-15.15,3.36-6.46,5.05-13.74,5.05-21.82s-1.69-15.35-5.05-21.81Z"/><path class="cls-1" d="M2051.63,557.14c7.27,4.58,12.96,10.94,17.07,19.09,4.11,8.15,6.16,17.34,6.16,27.57s-2.05,19.29-6.16,27.57c-4.11,8.28-9.76,14.78-16.97,19.49-7.21,4.72-15.25,7.07-24.14,7.07-7.68,0-14.78-1.92-21.31-5.76-6.53-3.84-11.82-8.92-15.86-15.25v13.33c0,1.75-.57,3.23-1.72,4.44-1.15,1.21-2.59,1.82-4.34,1.82s-3.2-.61-4.34-1.82c-1.15-1.21-1.72-2.69-1.72-4.44v-137.56c0-1.75.57-3.2,1.72-4.34s2.59-1.72,4.34-1.72,3.2.57,4.34,1.72c1.14,1.15,1.72,2.59,1.72,4.34v59.59c3.64-6.6,8.75-11.92,15.35-15.96,6.6-4.04,13.8-6.06,21.61-6.06,8.89,0,16.97,2.29,24.24,6.87ZM2045.26,640.96c5.59-3.77,9.96-8.92,13.13-15.45,3.16-6.53,4.75-13.77,4.75-21.71s-1.58-15.32-4.75-21.71c-3.17-6.39-7.54-11.41-13.13-15.05-5.59-3.64-11.89-5.45-18.89-5.45s-13.53,1.79-19.19,5.35c-5.66,3.57-10.03,8.58-13.13,15.05-3.1,6.46-4.65,13.74-4.65,21.82s1.58,15.39,4.75,21.92c3.16,6.53,7.54,11.65,13.13,15.35,5.59,3.71,11.95,5.55,19.09,5.55s13.3-1.88,18.89-5.65Z"/><path class="cls-1" d="M2185.35,602.48c-1.21,1.15-2.63,1.72-4.24,1.72h-76.35c0,8.08,1.65,15.32,4.95,21.71,3.3,6.4,8.01,11.45,14.14,15.15,6.13,3.71,13.36,5.55,21.71,5.55,6.46,0,12.25-1.34,17.37-4.04,5.12-2.69,9.22-6.13,12.32-10.3,1.48-1.21,2.89-1.82,4.24-1.82s2.56.54,3.64,1.62c1.08,1.08,1.61,2.29,1.61,3.64,0,1.48-.67,2.9-2.02,4.24-4.31,5.25-9.73,9.56-16.26,12.93-6.53,3.36-13.43,5.05-20.7,5.05-10.37,0-19.53-2.22-27.47-6.67-7.95-4.44-14.14-10.67-18.58-18.68-4.44-8.01-6.67-17.27-6.67-27.77,0-11.04,2.19-20.7,6.56-28.99,4.37-8.28,10.2-14.61,17.47-18.99,7.27-4.37,15.01-6.56,23.23-6.56s15.65,1.89,22.72,5.66c7.07,3.77,12.83,9.29,17.27,16.56,4.44,7.27,6.73,15.89,6.87,25.86,0,1.62-.61,3-1.82,4.14ZM2118.59,570.06c-6.66,5.39-10.94,13.13-12.83,23.23h68.88v-1.62c-.67-6.06-2.69-11.34-6.06-15.86-3.37-4.51-7.57-7.94-12.62-10.3-5.05-2.35-10.27-3.53-15.65-3.53-7.81,0-15.05,2.7-21.71,8.08Z"/><path class="cls-1" d="M2204.74,635.11c0-1.75.87-3.1,2.63-4.04.81-.81,1.88-1.21,3.23-1.21,1.61,0,3.1.67,4.44,2.02,7.94,10.5,18.51,15.75,31.71,15.75,6.46,0,12.09-1.51,16.87-4.54,4.78-3.03,7.17-7.44,7.17-13.23s-2.22-9.9-6.66-12.73c-4.44-2.83-10.64-5.25-18.58-7.27-11.18-2.83-19.93-6.5-26.26-11.01-6.33-4.51-9.49-11.14-9.49-19.9,0-5.52,1.55-10.47,4.65-14.85,3.1-4.38,7.3-7.78,12.62-10.2,5.32-2.42,11.34-3.64,18.08-3.64,5.79,0,11.61,1.11,17.47,3.33,5.86,2.22,10.87,5.76,15.05,10.6,1.21.94,1.82,2.29,1.82,4.04,0,1.61-.67,3.03-2.02,4.24-.94.81-2.16,1.21-3.64,1.21-1.35,0-2.56-.54-3.63-1.62-3.23-3.64-7.07-6.39-11.51-8.28-4.44-1.88-9.23-2.83-14.34-2.83-6.33,0-11.75,1.48-16.26,4.44-4.51,2.96-6.77,7.41-6.77,13.33.27,5.39,2.73,9.49,7.37,12.32,4.65,2.83,11.48,5.39,20.5,7.68,7,1.75,12.79,3.71,17.37,5.86,4.58,2.16,8.31,5.19,11.21,9.09,2.89,3.91,4.34,9.09,4.34,15.55,0,8.75-3.5,15.72-10.5,20.91-7,5.19-15.69,7.78-26.06,7.78-16.43,0-29.49-6.13-39.19-18.38-1.08-1.75-1.62-3.23-1.62-4.44Z"/><polygon class="cls-1" points="816.01 425.38 729.13 425.38 637.05 266.53 686.4 201.79 816.01 425.38"/><path class="cls-1" d="M780.68,110.69c-27.22-38.22-74.7-47.12-96.95-47.12h-46.68v67.07h50.27c18.28,1.9,32.32,17.23,32.32,35.3s-14.04,33.4-32.32,35.3h-50.27v65.3h46.68c22.25,0,69.73-8.9,96.95-47.12,4.2-5.89,17.95-25.79,17.95-54.37s-13.76-48.47-17.95-54.37Z"/></svg>