<?xml version="1.0" encoding="UTF-8"?><svg id="Artwork" xmlns="http://www.w3.org/2000/svg" viewBox="0 0 1501.9 754.71"><defs><style>.cls-1{fill:#fff;}</style></defs><path class="cls-1" d="M643.96,450.67l175.4,239.76h156.35l-259.26-354.37,235.2-271.78h-156.35c-50.45,57.56-100.9,115.12-151.35,172.67"/><rect class="cls-1" x="101.92" y="65.75" width="135.15" height="624.67"/><path class="cls-1" d="M313.03,65.44v120.13c35.5,0,64.28,25.55,64.28,57.06s-28.78,57.06-64.28,57.06v120.13c107.4,0,194.46-79.33,194.46-177.19s-87.06-177.19-194.46-177.19Z"/><polygon class="cls-1" points="1399.99 690.43 1249.65 690.43 1090.3 415.53 1175.69 303.48 1399.99 690.43"/><path class="cls-1" d="M1338.85,145.82c-47.11-66.14-129.28-81.54-167.78-81.54h-80.78v116.07h87c31.64,3.28,55.93,29.82,55.93,61.09s-24.29,57.81-55.93,61.09h-87v113.01h80.78c38.5,0,120.67-15.4,167.78-81.54,7.27-10.2,31.07-44.63,31.07-94.09s-23.81-83.89-31.07-94.09Z"/></svg>